<mxfile host="65bd71144e" modified="2020-12-22T12:36:21.382Z" agent="5.0 (Windows NT 10.0; Win64; x64) AppleWebKit/537.36 (KHTML, like Gecko) Code/1.52.1 Chrome/83.0.4103.122 Electron/9.3.5 Safari/537.36" etag="gIleG3gok10UgYVccQqU" version="13.10.0" type="embed">
    <diagram id="jTo_Vavvtyp7eSBpTw7-" name="overview">
        <mxGraphModel dx="771" dy="617" grid="1" gridSize="10" guides="1" tooltips="1" connect="1" arrows="1" fold="1" page="1" pageScale="1" pageWidth="827" pageHeight="1169" background="#ffffff" math="0" shadow="0">
            <root>
                <mxCell id="0"/>
                <mxCell id="1" parent="0"/>
                <mxCell id="3" value="Raft State Machine" style="rounded=0;whiteSpace=wrap;html=1;strokeWidth=2;fillColor=#f8cecc;fontSize=20;strokeColor=none;" parent="1" vertex="1">
                    <mxGeometry x="260" y="180" width="120" height="80" as="geometry"/>
                </mxCell>
                <mxCell id="4" value="Transport" style="rounded=0;whiteSpace=wrap;html=1;strokeWidth=2;fontSize=20;fillColor=#fff2cc;strokeColor=none;" parent="1" vertex="1">
                    <mxGeometry x="260" y="300" width="120" height="80" as="geometry"/>
                </mxCell>
                <mxCell id="5" value="Storage&lt;br&gt;(Read)" style="rounded=0;whiteSpace=wrap;html=1;strokeWidth=2;fontSize=20;fillColor=#dae8fc;strokeColor=none;" parent="1" vertex="1">
                    <mxGeometry x="400" y="200" width="120" height="80" as="geometry"/>
                </mxCell>
                <mxCell id="6" value="Storage&lt;br&gt;(Write)" style="rounded=0;whiteSpace=wrap;html=1;strokeWidth=2;fontSize=20;fillColor=#dae8fc;strokeColor=none;" parent="1" vertex="1">
                    <mxGeometry x="400" y="280" width="120" height="80" as="geometry"/>
                </mxCell>
                <mxCell id="2" value="" style="endArrow=none;html=1;strokeWidth=2;dashed=1;fontSize=20;" parent="1" edge="1">
                    <mxGeometry width="50" height="50" relative="1" as="geometry">
                        <mxPoint x="120" y="280" as="sourcePoint"/>
                        <mxPoint x="560" y="280" as="targetPoint"/>
                    </mxGeometry>
                </mxCell>
                <mxCell id="8" value="Developer" style="text;html=1;align=left;verticalAlign=middle;resizable=0;points=[];autosize=1;fontSize=20;" parent="1" vertex="1">
                    <mxGeometry x="160" y="290" width="110" height="30" as="geometry"/>
                </mxCell>
                <mxCell id="9" value="etcd/raft" style="text;html=1;align=left;verticalAlign=middle;resizable=0;points=[];autosize=1;fontSize=20;" parent="1" vertex="1">
                    <mxGeometry x="160" y="240" width="90" height="30" as="geometry"/>
                </mxCell>
            </root>
        </mxGraphModel>
    </diagram>
</mxfile>